<?xml version="1.0" encoding="UTF-8"?>
<svg width="100px" height="80px" viewBox="0 0 100 80" version="1.1" xmlns="http://www.w3.org/2000/svg" xmlns:xlink="http://www.w3.org/1999/xlink">
    <!-- Generator: Sketch 63.1 (92452) - https://sketch.com -->
    <title>image/image-volunteer</title>
    <desc>Created with Sketch.</desc>
    <g id="image/image-volunteer" stroke="none" stroke-width="1" fill="none" fill-rule="evenodd">
        <g transform="translate(1.000000, 2.000000)" fill="#000000">
            <path d="M60.355,38 L59.89797,38 C58.55417,38 57.24177,38.46875 56.20657,39.3203 L44.22957,49.1172 C43.88973,47.2344 42.53427,45.6797 40.64367,45.1133 L29.54967,41.7852 C28.08877,41.3477 26.58087,41.12504 25.05747,41.12504 L24.67466,41.12504 C21.90906,41.12504 19.18636,41.85942 16.79966,43.25394 L1.334659,52.27344 C0.854189,52.55469 0.561219,53.07031 0.561219,53.62504 L0.561219,73.93704 C0.561219,74.50735 0.873719,75.03084 1.373719,75.30814 C1.608099,75.43705 1.865909,75.49955 2.123719,75.49955 C2.416689,75.49955 2.705749,75.41752 2.963559,75.25736 L19.76456,64.56236 L44.31156,64.56236 C44.67875,64.56236 45.03812,64.42955 45.31936,64.19517 L64.12036,48.28517 C65.43286,47.17577 66.18676,45.55467 66.18676,43.83207 C66.18676,40.61727 63.56956,38 60.35476,38 L60.355,38 Z M62.105,45.8984 L43.742,61.4374 L19.312,61.4374 C19.01512,61.4374 18.72606,61.52334 18.47216,61.67959 L3.687159,71.09369 L3.687159,54.52369 L18.37816,45.95339 C20.28836,44.84009 22.46406,44.25029 24.67896,44.25029 L25.06177,44.25029 C26.28057,44.25029 27.48757,44.42607 28.65557,44.77763 L39.74957,48.10573 C40.60895,48.36354 41.18707,49.14093 41.18707,50.03933 C41.18707,51.15653 40.28082,52.06273 39.16367,52.06273 L28.68667,52.06273 L28.68667,55.18773 L41.18667,55.18773 C41.54605,55.18773 41.89761,55.06273 42.17495,54.83617 L58.18295,41.73817 C58.66733,41.34364 59.27275,41.12489 59.89775,41.12489 L60.35478,41.12489 C61.84698,41.12489 63.06178,42.33969 63.06178,43.83189 C63.06178,44.63267 62.71022,45.38269 62.10475,45.89829 L62.105,45.8984 Z" id="Fill-1"></path>
            <path d="M96.625,0.695 C96.125,0.42156 95.5156,0.44109 95.0312,0.74578 L78.2342,11.43678 L53.6872,11.43678 C53.32001,11.43678 52.96064,11.56959 52.6794,11.80787 L33.8784,27.71387 C32.562,28.82327 31.812,30.44827 31.812,32.16697 C31.812,35.38177 34.4292,37.99897 37.644,37.99897 L38.10103,37.99897 C39.44483,37.99897 40.75333,37.53022 41.79243,36.67867 L53.76943,26.88177 C54.10537,28.76847 55.46473,30.31927 57.35533,30.88567 L68.44933,34.21377 C69.91023,34.65127 71.42203,34.87393 72.93763,34.87393 L73.32044,34.87393 C76.08604,34.87393 78.80874,34.13955 81.19544,32.74503 L96.66044,23.72163 C97.14482,23.44429 97.43778,22.92866 97.43778,22.37393 L97.43778,2.06193 C97.43778,1.49162 97.12528,0.96813 96.62528,0.69473 L96.625,0.695 Z M94.31275,21.476 L79.6215,30.0463 C77.7113,31.1596 75.5356,31.7494 73.3207,31.7494 L72.93789,31.7494 C71.72309,31.7494 70.51209,31.57362 69.34409,31.22206 L58.25009,27.89396 C57.39071,27.63615 56.81259,26.85876 56.81259,25.95646 C56.81259,24.84316 57.71884,23.93696 58.83599,23.93696 L69.31299,23.93696 L69.31299,20.81196 L56.81299,20.81196 C56.45361,20.81196 56.10205,20.93696 55.82471,21.16352 L39.81671,34.26152 C39.33233,34.65605 38.72291,34.8748 38.10191,34.8748 L37.64488,34.8748 C36.15268,34.8748 34.93788,33.66 34.93788,32.1678 C34.93788,31.37092 35.28944,30.617 35.89491,30.1014 L54.25791,14.5624 L78.68791,14.5624 C78.98479,14.5624 79.27385,14.47646 79.52775,14.32021 L94.31275,4.91001 L94.31275,21.476 Z" id="Fill-2"></path>
        </g>
    </g>
</svg>