<?xml version="1.0" encoding="UTF-8"?>
<svg width="100px" height="80px" viewBox="0 0 100 80" version="1.1" xmlns="http://www.w3.org/2000/svg" xmlns:xlink="http://www.w3.org/1999/xlink">
    <!-- Generator: Sketch 63.1 (92452) - https://sketch.com -->
    <title>image/image-present</title>
    <desc>Created with Sketch.</desc>
    <g id="image/image-present" stroke="none" stroke-width="1" fill="none" fill-rule="evenodd">
        <path d="M82.1117155,20.4375 L67.8679819,20.4375 C68.514337,19.3145662 68.8891908,18.0129788 68.8891908,16.625 C68.8891908,12.419355 65.5009774,9 61.3336351,9 C56.9803505,9 52.4649237,12.15126 50.0003015,16.1960937 C47.5359059,12.15126 43.0202524,9 38.6669679,9 C34.4996256,9 31.1114122,12.419355 31.1114122,16.625 C31.1114122,18.0129788 31.4862357,19.3145662 32.1326211,20.4375 L17.8888889,20.4375 C16.8441067,20.4375 16,21.289365 16,22.34375 L16,33.78125 C16,34.835635 16.8441067,35.6875 17.8888889,35.6875 L19.7777779,35.6875 L19.7777779,68.09375 C19.7777779,69.148135 20.621883,70 21.6666653,70 L78.3333332,70 C79.3781155,70 80.2222221,69.148135 80.2222221,68.09375 L80.2222221,35.6875 L82.1111111,35.6875 C83.1558933,35.6875 84,34.835635 84,33.78125 L84,22.34375 C84,21.289365 83.1558933,20.4375 82.1111111,20.4375 L82.1117155,20.4375 Z M61.5465753,12.5882353 C63.5674641,12.5882353 65.2105263,14.3984821 65.2105263,16.625 C65.2105263,18.8515179 63.5674641,20.6617647 61.5465753,20.6617647 L52.6842105,20.6617647 C53.803401,16.6061079 57.9511401,12.5882353 61.5465753,12.5882353 Z M34.7894737,16.625 C34.7894737,14.3984821 36.4325359,12.5882353 38.4534247,12.5882353 C42.04864,12.5882353 46.196086,16.6061079 47.3157895,20.6617647 L38.4534247,20.6617647 C36.4325359,20.6617647 34.7894737,18.8515179 34.7894737,16.625 Z M19.5789474,24.25 L48.2105263,24.25 L48.2105263,32.3235294 L19.5789474,32.3235294 L19.5789474,24.25 Z M24.0526316,35.9117647 L48.2105263,35.9117647 L48.2105263,66.4117647 L24.0526316,66.4117647 L24.0526316,35.9117647 Z M75.9473684,66.4117647 L51.7894737,66.4117647 L51.7894737,35.9117647 L75.9473684,35.9117647 L75.9473684,66.4117647 Z M80.4210526,32.3235294 L51.7894737,32.3235294 L51.7894737,24.25 L80.4210526,24.25 L80.4210526,32.3235294 Z" fill="#000000"></path>
    </g>
</svg>