<?xml version="1.0" encoding="UTF-8"?>
<svg width="100px" height="80px" viewBox="0 0 100 80" version="1.1" xmlns="http://www.w3.org/2000/svg" xmlns:xlink="http://www.w3.org/1999/xlink">
    <!-- Generator: Sketch 63.1 (92452) - https://sketch.com -->
    <title>image/image-time</title>
    <desc>Created with Sketch.</desc>
    <g id="image/image-time" stroke="none" stroke-width="1" fill="none" fill-rule="evenodd">
        <g transform="translate(18.000000, 8.000000)" fill="#000000">
            <path d="M32.8500004,0 C24.0854167,0 15.8398324,3.36266006 9.631062,9.48177329 C3.42229157,15.6008865 0,23.7406401 0,32.3999996 C0,41.0593591 3.42221763,49.1985216 9.631062,55.318226 C15.8399064,61.4379303 24.0706304,64.8 32.8500004,64.8 C41.6293703,64.8 49.8601683,61.4373392 56.0689387,55.318226 C62.2777092,49.1991127 65.7,41.0593591 65.7,32.3999996 C65.7,23.7406401 62.2777831,15.6014777 56.0689387,9.48177329 C49.8600944,3.36206893 41.614584,0 32.8500004,0 Z M32.8500004,60.46995 C17.1247625,60.46995 4.33164947,47.8706891 4.33164947,32.3999996 C4.33164947,16.9293102 17.1255019,4.33004921 32.8500004,4.33004921 C48.5744989,4.33004921 61.3683513,16.9293102 61.3683513,32.3999996 C61.3683513,47.8706891 48.5744989,60.46995 32.8500004,60.46995 Z" id="Fill-1"></path>
            <path d="M46.8689605,42.0144156 L34.8404204,32.5545865 L34.8404204,13.866377 C34.8404204,12.6676489 33.8933927,11.7 32.7202102,11.7 C31.5470277,11.7 30.6,12.6676489 30.6,13.866377 L30.6,33.6238363 C30.6,34.3026325 30.8826899,34.9380671 31.40569,35.3424742 L44.282401,45.4522831 C44.6640345,45.7555773 45.1163151,45.9 45.5686247,45.9 C46.2046877,45.9 46.8407363,45.6111547 47.2648218,45.0479277 C47.9715537,44.1091914 47.8019412,42.7515547 46.8690473,42.014985 L46.8689605,42.0144156 Z" id="Fill-2"></path>
        </g>
    </g>
</svg>