<?xml version="1.0" encoding="UTF-8"?>
<svg width="100px" height="80px" viewBox="0 0 100 80" version="1.1" xmlns="http://www.w3.org/2000/svg" xmlns:xlink="http://www.w3.org/1999/xlink">
    <!-- Generator: Sketch 63.1 (92452) - https://sketch.com -->
    <title>image/image-contact</title>
    <desc>Created with Sketch.</desc>
    <g id="image/image-contact" stroke="none" stroke-width="1" fill="none" fill-rule="evenodd" opacity="0.899999976">
        <g transform="translate(11.000000, 5.000000)" fill="#000000">
            <path d="M25.2003813,20.7 C29.5680052,20.7 33.5078754,18.1795396 35.1770413,14.3106749 C36.8492419,10.4447952 35.9257699,5.99307884 32.8372541,3.03327909 C29.7487383,0.0733262671 25.1035058,-0.814613656 21.0668399,0.787903211 C17.0330492,2.39049662 14.4,6.16360984 14.4,10.3492734 C14.4062374,16.0628273 19.2386641,20.6944126 25.2000618,20.6997704 L25.2003813,20.7 Z M25.2003813,2.89833916 C28.3450418,2.89833916 31.1808666,4.7161629 32.3850619,7.49969115 C33.5861426,10.2832194 32.9216548,13.4883297 30.6972877,15.6198141 C28.4760992,17.7485431 25.1316979,18.3884171 22.2244743,17.2343477 C19.3200459,16.0802784 17.4263813,13.362498 17.4263813,10.3487376 C17.4326187,6.23770051 20.9079896,2.90400312 25.2007008,2.89803301 L25.2003813,2.89833916 Z" id="Fill-1"></path>
            <path d="M51.3003813,20.7 C55.6680052,20.7 59.6046809,18.1795396 61.2770413,14.3106749 C62.9492419,10.4447952 62.0257699,5.99307884 58.9372541,3.03327909 C55.8487383,0.0733262671 51.2035058,-0.814613656 47.1668399,0.787903211 C43.1330492,2.39049662 40.5,6.16360984 40.5,10.3492734 C40.5062374,16.0628273 45.3386641,20.6944126 51.3000618,20.6997704 L51.3003813,20.7 Z M51.3003813,2.89833916 C54.4450418,2.89833916 57.2777519,4.7161629 58.4819472,7.49969115 C59.6861426,10.2832194 59.0216548,13.4883297 56.7972877,15.6198141 C54.5729047,17.7485431 51.2285832,18.3884171 48.3244743,17.2343477 C45.4200459,16.0802784 43.5263813,13.362498 43.5263813,10.3487376 C43.529496,6.23770051 47.0079896,2.90400312 51.3007008,2.89803301 L51.3003813,2.89833916 Z" id="Fill-2"></path>
            <path d="M64.7859506,30.4391287 C64.8898328,29.0762307 64.4145019,27.7315566 63.4638723,26.718573 C62.5163532,25.7024742 61.1754179,25.1092631 59.7619561,25.078812 L14.5021668,24.3030583 L14.5021668,24.3 C11.1370961,24.2939308 8.14980819,26.3899978 7.11098627,29.483854 L0,46.4289592 L0.76807226,63.3982071 C0.884541837,66.0509533 3.14468665,68.144053 5.89279814,68.1379005 C6.73644306,68.1379005 7.41948197,67.4777439 7.41948197,66.6655034 C7.41948197,65.8501789 6.73639471,65.1900675 5.89279814,65.1900675 C4.77846802,65.1900675 3.86560054,64.3443698 3.8183777,63.2704841 L3.07863108,46.9429664 L9.97872627,30.4877257 C10.5894079,28.5772543 12.4057063,27.2691059 14.4738411,27.250882 L59.6925321,28.0266357 C60.2717371,28.0388084 60.8162906,28.282183 61.200359,28.6959199 C61.5906969,29.1127019 61.7858578,29.6663811 61.738643,30.2261038 C61.587546,31.2573893 60.7061873,32.0453001 59.629571,32.1092394 L36.0334615,33.7003255 L36.0334615,66.3522464 L14.3665582,66.3522464 L14.3665582,37.6612964 C14.3665582,36.8459719 13.683471,36.185862 12.8398744,36.185862 C11.9962778,36.185862 11.3131906,36.8460186 11.3131906,37.6612964 L11.3131906,69.3 L39.0868292,69.3 L39.0868292,36.4502642 L59.8624618,35.0508405 C62.4436816,34.8743959 64.5212449,32.9273676 64.785725,30.4388717 L64.7859506,30.4391287 Z" id="Fill-3"></path>
            <path d="M46.0070837,56.3434435 C47.285924,57.4181085 48.6806285,58.3527218 50.1694528,59.1290463 C50.511092,59.305619 50.8934764,59.3969527 51.27899,59.4 C51.6927234,59.3939132 52.0970209,59.290398 52.4606615,59.0986044 C53.8146852,58.3801243 55.0934452,57.5337973 56.278246,56.5717504 C57.3658781,55.7284785 58.312451,54.7298794 59.09285,53.6095437 C60.1208649,52.1908674 60.5157985,50.4281798 60.1867407,48.723321 C59.9955485,47.654735 59.5034622,46.6622929 58.7637922,45.8524558 C58.2090156,45.2557591 57.5225837,44.7899488 56.7547019,44.4916083 C56.2218705,44.2906804 55.6639405,44.1689048 55.0935254,44.1293287 C54.8302471,44.0988868 54.5638233,44.0927999 54.300545,44.1080209 C53.2255103,44.1384629 52.1817687,44.4703005 51.2916034,45.0579098 C51.2195092,45.0122468 51.147423,44.9665761 51.0721995,44.9209132 C49.9689209,44.2937667 48.6869513,44.0258915 47.4144499,44.1537306 C45.9224963,44.2876799 44.5559555,45.012278 43.6313679,46.1538904 C42.7286854,47.2894237 42.2616977,48.6929024 42.3024589,50.1268543 C42.3620118,51.3902813 42.7757373,52.6171561 43.4935183,53.673584 C44.1924673,54.6782621 45.0387502,55.5793628 46.0072281,56.3435292 L46.0070837,56.3434435 Z M46.0258916,47.9683979 L46.0290209,47.9683979 C46.4333504,47.4630271 47.03826,47.1464027 47.6933266,47.0916134 C47.8061659,47.0824792 47.9127306,47.0794397 48.0224326,47.0794397 C48.5427308,47.0703056 49.0567864,47.198168 49.5081276,47.4539007 C49.7588727,47.6091656 49.9876806,47.7979198 50.1820021,48.0171159 L51.3855787,49.3444508 L52.5138917,47.9562476 L52.517029,47.9532003 C52.9934447,47.3717246 53.7237349,47.0398636 54.4884875,47.0551391 L54.5856482,47.0520996 C54.6828089,47.0581864 54.8050522,47.0673206 54.8646052,47.0734074 C55.1278916,47.0886284 55.3849033,47.1434255 55.6325111,47.2347592 C55.9772877,47.3717558 56.2813111,47.5818177 56.528935,47.8527714 C56.8831155,48.2607217 57.11819,48.7569896 57.2028095,49.2836058 C57.3814684,50.2212586 57.1557898,51.1893846 56.5759467,51.9565905 L56.5665427,51.9687642 C55.9459465,52.8546673 55.1906139,53.6431498 54.3254831,54.3098957 C53.3789102,55.0801256 52.3634125,55.7651242 51.2851683,56.3526867 C50.1129649,55.7194535 49.0096864,54.9675231 47.9941084,54.1089757 C47.2450104,53.5244527 46.5868064,52.8333906 46.0445551,52.0631452 C45.6214257,51.4573144 45.3769472,50.7479684 45.3393314,50.0142752 C45.3173942,49.2775346 45.5618647,48.5529676 46.0288845,47.9684446 L46.0258916,47.9683979 Z" id="Fill-4"></path>
            <path d="M68.6416929,27.8760227 C68.4804897,27.5229859 68.1770502,27.2447475 67.7977266,27.1011555 C67.4215911,26.9605427 66.9980382,26.9665245 66.6250746,27.1191083 C66.2520949,27.2716921 65.9581389,27.5589069 65.8095912,27.9149614 C65.6578714,28.2739799 65.6641911,28.6718911 65.8253943,29.0249125 L74.3055161,47.5828181 L73.5627206,63.6101699 L73.5627206,63.6131569 C73.5153031,64.6692649 72.5986731,65.5009624 71.482906,65.4979753 C70.6357839,65.4979753 69.9499297,66.1472064 69.9499297,66.9489876 C69.9499297,67.7507687 70.6358324,68.4 71.482906,68.4 C74.2391074,68.4029884 76.5085919,66.3475981 76.6255982,63.7417526 L77.4,47.0472966 L68.6416929,27.8760227 Z" id="Fill-5"></path>
            <path d="M65.0599352,38.7 C64.6503021,38.7 64.2597236,38.8541354 63.9707994,39.1291607 C63.6818345,39.4041859 63.5198867,39.7759229 63.5198867,40.1657567 L63.5198867,66.3684711 L44.7400566,66.3684711 C43.8890219,66.3684711 43.2,67.0243011 43.2,67.8342356 C43.2,68.641199 43.8890707,69.3 44.7400566,69.3 L66.6,69.3 L66.6,40.1657567 C66.6,39.7758842 66.4380522,39.4041472 66.1490874,39.1291607 C65.8601225,38.8541354 65.469544,38.7 65.0599515,38.7 L65.0599352,38.7 Z" id="Fill-6"></path>
        </g>
    </g>
</svg>