<?xml version="1.0" encoding="UTF-8"?>
<svg width="100px" height="80px" viewBox="0 0 100 80" version="1.1" xmlns="http://www.w3.org/2000/svg" xmlns:xlink="http://www.w3.org/1999/xlink">
    <!-- Generator: Sketch 63.1 (92452) - https://sketch.com -->
    <title>image/image-words</title>
    <desc>Created with Sketch.</desc>
    <g id="image/image-words" stroke="none" stroke-width="1" fill="none" fill-rule="evenodd">
        <g transform="translate(14.000000, 13.000000)" fill="#000000">
            <path d="M72.2369555,12.06633 C71.8814855,11.47649 71.2408655,11.11711 70.5494555,11.11711 C70.5025855,11.11711 65.9947555,11.09367 63.6392555,9.15621 C61.3736555,7.29291 53.5342555,1.13281 47.7802555,0.13281 C47.2763455,0.04297 46.7294555,-7.10542736e-15 46.1630555,-7.10542736e-15 C42.4677555,-7.10542736e-15 38.1435555,1.9141 36.2607555,2.8438 C34.3740555,1.91411 30.0537555,-7.10542736e-15 26.3584555,-7.10542736e-15 C25.7920455,-7.10542736e-15 25.2451555,0.04297 24.7412555,0.13281 C19.6982555,1.01172 12.6552555,6.15231 8.9052555,9.14061 C6.9794555,10.67181 3.2099555,11.08981 1.9208555,11.12111 C1.2411655,11.13673 0.616155503,11.50392 0.272455503,12.08986 C-0.0752044971,12.6797 -0.0908244971,13.40236 0.229485503,14.00396 C0.725575503,14.94146 12.6704855,37.04296 36.2644855,37.04296 C59.8584855,37.04296 71.8034955,14.94096 72.2994855,14.00396 C72.6119855,13.38677 72.5885455,12.65626 72.2369855,12.06646 L72.2369555,12.06633 Z M36.2569555,33.10943 C19.5689555,33.10943 9.0419555,20.25433 5.2649555,14.68333 C7.1907555,14.32786 9.5774555,13.61693 11.3469555,12.20673 C17.2258555,7.51923 22.3549555,4.52703 25.4089555,3.99583 C25.6941155,3.94505 26.0105155,3.92161 26.3542655,3.92161 C30.1120655,3.92161 35.2526655,6.73801 35.3034655,6.76541 C35.8972155,7.09353 36.6159655,7.09353 37.2057655,6.76541 C38.6354655,5.97244 43.0221655,3.92161 46.1588655,3.92161 C46.5026155,3.92161 46.8190255,3.94505 47.1041755,3.99583 C50.9283755,4.65989 57.0533755,8.82393 61.1391755,12.18723 C62.9321755,13.66383 65.3032755,14.37473 67.2250755,14.71843 C63.4438755,20.31223 52.9520755,33.10943 36.2560755,33.10943 L36.2569555,33.10943 Z" id="Fill-3"></path>
            <path d="M58.6119555,13.55533 C58.3580455,13.49283 52.3111555,11.99283 47.7529555,11.99283 C44.9873555,11.99283 42.4404555,12.98111 40.1943555,13.85223 C38.6670555,14.44598 37.2216555,15.00453 36.2568555,15.00453 C35.2920555,15.00453 33.8466555,14.44203 32.3193555,13.85223 C30.0732555,12.98114 27.5263555,11.99283 24.7607555,11.99283 C20.2021555,11.99283 14.1557555,13.49673 13.9017555,13.55533 C13.2103455,13.73111 12.6673555,14.26627 12.4798555,14.94983 C12.2962655,15.63733 12.4993955,16.37563 13.0111055,16.87173 C13.5032955,17.34829 25.1751055,28.53573 36.2571055,28.53573 C47.3391055,28.53573 59.0111055,17.34773 59.5031055,16.87173 C60.0148255,16.37564 60.2179455,15.64123 60.0343555,14.94983 C59.8507655,14.26233 59.3077955,13.72713 58.6124555,13.55533 L58.6119555,13.55533 Z M36.2569555,24.61033 C29.7530555,24.61033 22.5729555,19.69623 18.6709555,16.57123 C20.5654555,16.23529 22.8506555,15.91889 24.7607555,15.91889 C26.7919555,15.91889 28.8779555,16.73139 30.8974555,17.51269 C32.7802555,18.24316 34.5536555,18.93069 36.2568555,18.93069 C37.9560555,18.93069 39.7334555,18.24319 41.6162555,17.51269 C43.6357555,16.73144 45.7217555,15.91889 47.7529555,15.91889 C49.6631555,15.91889 51.9482555,16.2353 53.8427555,16.57123 C49.9404555,19.69233 42.7607555,24.61033 36.2567555,24.61033 L36.2569555,24.61033 Z" id="Fill-4"></path>
            <path d="M6.1909555,42.94933 C5.8589255,42.94933 5.5268955,42.83996 5.2495455,42.6173 C4.6050155,42.09777 4.5034555,41.1525 5.0229855,40.5079 L9.8862855,34.4767 C10.4058155,33.83217 11.3510855,33.73061 11.9956855,34.25014 C12.6402155,34.76967 12.7417755,35.71494 12.2222455,36.35954 L7.3589455,42.39074 C7.0620755,42.75793 6.6284755,42.94933 6.1909455,42.94933 L6.1909555,42.94933 Z" id="Fill-62"></path>
            <path d="M36.5299555,53.57833 C35.7018255,53.57833 35.0299555,52.90645 35.0299555,52.07833 L35.0338555,44.33223 C35.0338555,43.50411 35.7057355,42.83223 36.5338555,42.83223 C37.3619755,42.83223 38.0338555,43.50411 38.0338555,44.33223 L38.0299555,52.07833 C38.0299555,52.91036 37.3580755,53.57833 36.5299555,53.57833 Z" id="Fill-63"></path>
            <path d="M66.8269555,42.81633 C66.3894555,42.81633 65.9558655,42.62492 65.6589555,42.25774 L60.7995555,36.22654 C60.2800255,35.58201 60.3815855,34.63674 61.0261155,34.11714 C61.6706455,33.59754 62.6159155,33.69917 63.1355155,34.3437 L67.9949155,40.3749 C68.5144455,41.01943 68.4128855,41.9647 67.7683555,42.4843 C67.4871055,42.71086 67.1550755,42.81633 66.8269455,42.81633 L66.8269555,42.81633 Z" id="Fill-64"></path>
            <path d="M53.6949555,50.39133 C53.0894855,50.39133 52.5191555,50.02414 52.2926555,49.42258 L49.5426555,42.18038 C49.2496855,41.40694 49.6403155,40.53978 50.4137455,40.24678 C51.1832755,39.95772 52.0543455,40.34053 52.3473455,41.11787 L55.0973455,48.36007 C55.3903155,49.13351 54.9996955,50.00067 54.2262555,50.29367 C54.0504755,50.36008 53.8707855,50.39133 53.6950055,50.39133 L53.6949555,50.39133 Z" id="Fill-65"></path>
            <path d="M19.4449555,50.49633 C19.2691755,50.49633 19.0894855,50.46508 18.9137055,50.39867 C18.1402655,50.1057 17.7496055,49.23847 18.0426155,48.46507 L20.7848155,41.21897 C21.0777855,40.44553 21.9410155,40.05487 22.7184155,40.34788 C23.4918555,40.64085 23.8825155,41.50808 23.5895055,42.28148 L20.8473055,49.52758 C20.6207455,50.12914 20.0504255,50.49633 19.4450055,50.49633 L19.4449555,50.49633 Z" id="Fill-66"></path>
        </g>
    </g>
</svg>